# xmcd
#
# Track frame offsets: 
#        150
#        12889
#        43476
#        58076
#        73226
#        90626
#        103201
#        118488
#        128800
#        154050
#        179695
#        206703
#        227887
#        248558
#
# Disc length: 3763 seconds
#
# Revision: 0
# Processed by: cddbd v1.5.2PL0 Copyright (c) Steve Scherf et al.
# Submitted via: ExactAudioCopy v0.95b4
#
DISCID=d50eb10e
DTITLE=The Red Devils - 'Hard Grind'
DYEAR=1993
DGENRE=Blues
TTITLE0=Hard Grind - 'Wild' Jimmy Spruill
TTITLE1=Dynamite - The Red Devils (Villa 65)
TTITLE2=Watch yourself - The Red Devils with Mick Jagger
TTITLE3=Blues with a feeling - The Red Devils with Mick Jagger
TTITLE4=Four days - The Red Devils with Mick Jagger
TTITLE5=Talk to me - The Red Devils with Mick Jagger
TTITLE6=Checking out on my baby - The Red Devils with Mick Jagger
TTITLE7=Leave my affairs alone - The Red Devils with Mick Jagger
TTITLE8=Shake'em on Down - The Red Devils with Mick Jagger
TTITLE9=Automatic - The Red Devils @ 2M-session
TTITLE10=Your Time To Cry - The Red Devils @ Pinkpop 1993
TTITLE11=She's dangerous -  The Red Devils @ Pinkpop 1993
TTITLE12=Going to da church -  The Red Devils @ Pinkpop 1993
TTITLE13=Backstroke -  The Red Devils @ Pinkpop 1993
EXTD=
EXTT0=
EXTT1=
EXTT2=
EXTT3=
EXTT4=
EXTT5=
EXTT6=
EXTT7=
EXTT8=
EXTT9=
EXTT10=
EXTT11=
EXTT12=
EXTT13=
PLAYORDER=
